<?xml version="1.0" encoding="UTF-8" standalone="no"?>
<svg
   xmlns:dc="http://purl.org/dc/elements/1.1/"
   xmlns:cc="http://creativecommons.org/ns#"
   xmlns:rdf="http://www.w3.org/1999/02/22-rdf-syntax-ns#"
   xmlns:svg="http://www.w3.org/2000/svg"
   xmlns="http://www.w3.org/2000/svg"
   xmlns:sodipodi="http://sodipodi.sourceforge.net/DTD/sodipodi-0.dtd"
   xmlns:inkscape="http://www.inkscape.org/namespaces/inkscape"
   enable-background="new 0 0 550 550"
   id="Layer_1"
   version="1.1"
   viewBox="0 0 24.999998 24.999998"
   xml:space="preserve"
   sodipodi:docname="linkedin.svg"
   inkscape:version="1.0.2 (e86c870879, 2021-01-15, custom)"
   width="24.999998"
   height="24.999998"><metadata
     id="metadata15"><rdf:RDF><cc:Work
         rdf:about=""><dc:format>image/svg+xml</dc:format><dc:type
           rdf:resource="http://purl.org/dc/dcmitype/StillImage" /><dc:title></dc:title></cc:Work></rdf:RDF></metadata><defs
     id="defs13" /><sodipodi:namedview
     pagecolor="#ffffff"
     bordercolor="#666666"
     borderopacity="1"
     objecttolerance="10"
     gridtolerance="10"
     guidetolerance="10"
     inkscape:pageopacity="0"
     inkscape:pageshadow="2"
     inkscape:window-width="1920"
     inkscape:window-height="1147"
     id="namedview11"
     showgrid="false"
     inkscape:zoom="1.7818182"
     inkscape:cx="12.499996"
     inkscape:cy="12.499996"
     inkscape:window-x="-8"
     inkscape:window-y="-8"
     inkscape:window-maximized="1"
     inkscape:current-layer="Layer_1" /><g
     id="g8"
     transform="matrix(0.04882812,0,0,0.04882812,-0.92773428,-0.92773428)"><g
       id="g6"><circle
         cx="275"
         cy="275"
         fill="#04689b"
         r="256"
         id="circle2" /><path
         d="M 219.2,366.5 H 180.4 V 242.2 h 38.8 z M 198.8,226.6 h -0.3 c -14.1,0 -23.2,-9.5 -23.2,-21.6 0,-12.3 9.4,-21.6 23.7,-21.6 14.3,0 23.1,9.3 23.4,21.5 0.1,12.2 -9,21.7 -23.6,21.7 z m 175.8,139.9 h -44 v -64.3 c 0,-16.8 -6.9,-28.3 -22,-28.3 -11.6,0 -18,7.7 -21,15.2 -1.1,2.7 -0.9,6.4 -0.9,10.2 v 67.3 H 243 c 0,0 0.6,-113.9 0,-124.3 h 43.6 v 19.5 c 2.6,-8.5 16.5,-20.7 38.8,-20.7 27.6,0 49.3,17.9 49.3,56.4 v 69 z"
         fill="#ffffff"
         id="path4" /></g></g></svg>
